<svg width="331" height="373" viewBox="0 0 331 373" fill="none" xmlns="http://www.w3.org/2000/svg">
<path d="M16.2321 103.9H91.5321C93.8321 78.4 100.932 55.5 111.132 37.8C124.632 14.4 143.832 0 165.532 0C187.232 0 206.332 14.5 219.932 37.8C230.132 55.4 237.232 78.4 239.532 103.9H314.732C323.632 103.9 331.632 111.2 330.932 120.1L315.832 330.8C313.932 357.2 297.332 372.3 273.232 372.3H57.8321C31.0321 372.3 16.8321 353.6 15.2321 330.8L0.0321024 120.2C-0.567898 111.3 7.3321 103.9 16.2321 103.9ZM110.332 103.9H220.532C218.332 81.8 212.232 62.2 203.532 47.2C193.532 29.7 179.932 18.8 165.532 18.8C151.032 18.8 137.532 29.7 127.332 47.3C118.632 62.2 112.632 81.9 110.332 103.9Z" fill="#EA501F"/>
<path d="M110.832 298.4C107.332 296 106.432 291.3 108.832 287.8C111.232 284.3 115.932 283.4 119.432 285.8C121.632 287.3 123.932 288.8 126.432 290.3C144.032 301 160.232 306.3 173.732 306.3C185.932 306.3 195.832 301.7 202.132 292.4C202.532 291.7 202.932 291.3 203.032 291C204.832 288.1 206.132 285 207.032 282C208.832 275.8 208.532 269.4 206.032 263.6C203.332 257.5 198.132 251.6 190.032 246.7C184.632 243.4 177.932 240.5 169.832 238.3C149.232 232.5 134.032 224.3 125.832 213.3C116.832 201.2 116.132 186.6 125.732 168.9C132.132 157.2 145.232 149.9 161.832 148.6C176.132 147.5 193.332 150.9 210.832 159.8C214.632 161.7 216.132 166.3 214.132 170.1C212.132 173.9 207.632 175.4 203.832 173.4C188.932 165.8 174.732 162.9 162.932 163.8C151.632 164.7 143.032 169.1 139.232 176.1C132.832 187.8 132.932 197 138.132 204C144.132 212.1 156.632 218.4 174.032 223.3C183.432 226 191.432 229.4 198.032 233.4C208.932 240 216.232 248.3 220.132 257.3C224.132 266.6 224.632 276.4 221.932 286C220.732 290.3 218.832 294.6 216.232 298.8C215.632 299.7 215.232 300.4 214.932 300.9C205.632 314.6 191.332 321.4 173.932 321.5C157.632 321.5 138.632 315.5 118.632 303.3C116.132 301.9 113.532 300.3 110.832 298.4Z" fill="white"/>
</svg>
