<svg width="265" height="299" viewBox="0 0 265 299" fill="none" xmlns="http://www.w3.org/2000/svg">
<path fill-rule="evenodd" clip-rule="evenodd" d="M132.215 68.8785C146.228 61.8754 163.225 58.0562 178.779 56.7092L196.259 55.1879C215.404 53.5404 234.564 54.5507 253.732 54.5507L264.245 54.5503V65.0604C264.245 111.732 264.245 158.415 264.245 205.094V210.458C264.245 258.643 224.843 298.045 176.642 298.045H0.0701904V54.5503H10.5758C29.7667 54.5503 48.8541 53.2913 68.0405 54.7778L85.5174 56.1003C102.117 57.3475 117.317 61.3746 132.215 68.8785Z" fill="#4D4C4B"/>
<path fill-rule="evenodd" clip-rule="evenodd" d="M10.5758 65.0604V185.017V205.094V210.458V287.542H87.646H99.7594H176.642C219.045 287.542 253.732 252.846 253.732 210.458V205.094C253.732 158.686 253.732 113.417 253.732 65.0604C235.309 65.0604 215.852 64.6095 197.169 65.6647L179.685 67.1724C162.576 69.2534 145.268 73.2457 132.154 80.8135C117.998 72.6338 102.556 68.5674 84.7237 66.5684L67.2445 65.2422C48.1825 64.3532 28.6389 65.0604 10.5758 65.0604Z" fill="#5FB74E"/>
<path fill-rule="evenodd" clip-rule="evenodd" d="M32.3761 287.542H87.646H99.7594H176.642C195.429 287.542 212.688 280.729 226.088 269.47C210.434 233.09 174.262 207.627 132.15 207.627C83.3532 207.627 42.5536 241.808 32.3761 287.542Z" fill="#89C45F"/>
<path fill-rule="evenodd" clip-rule="evenodd" d="M132.154 287.542L177.541 286.87C196.076 286.87 212.951 280.334 226.092 269.476C243.013 255.492 253.732 234.317 253.732 210.458V205.094C253.732 158.686 253.732 113.417 253.732 65.0604C235.309 65.0604 215.852 64.6095 197.169 65.6648L179.685 67.1724C162.576 69.2534 145.268 73.2457 132.154 80.8135V287.542Z" fill="#4A9E4B"/>
<path fill-rule="evenodd" clip-rule="evenodd" d="M132.154 287.542H176.925C195.711 287.542 212.691 280.734 226.092 269.476C210.612 233.503 173.664 208.202 132.154 207.646V287.542Z" fill="#5FB74E"/>
<path fill-rule="evenodd" clip-rule="evenodd" d="M197.17 58.3831C193.829 25.5677 166.098 0 132.43 0C98.776 0 71.0592 25.3485 67.2445 57.9742L84.7237 59.3065C87.8123 35.7441 107.897 17.5257 132.363 17.5257C156.819 17.5257 177.077 36.0537 179.684 59.8885L197.17 58.3831Z" fill="#4D4C4B"/>
<path fill-rule="evenodd" clip-rule="evenodd" d="M160.587 217.886C152.97 225.94 145.362 233.999 137.749 242.066L132.15 248.001L126.557 242.066C118.942 234.013 111.333 225.94 103.722 217.887L99.7783 213.701L102.658 208.73C108.766 198.199 120.189 192.534 132.15 192.534C144.124 192.534 155.535 198.199 161.647 208.73L164.531 213.701L160.587 217.886Z" fill="#4D4C4B"/>
<path fill-rule="evenodd" clip-rule="evenodd" d="M154.979 212.603C147.382 220.664 139.757 228.715 132.15 236.78C124.542 228.715 116.928 220.664 109.316 212.603C114.124 204.314 123.148 200.219 132.15 200.234C141.153 200.219 150.176 204.315 154.979 212.603Z" fill="#FDF8B4"/>
<path fill-rule="evenodd" clip-rule="evenodd" d="M154.979 212.603C147.382 220.664 139.757 228.715 132.15 236.78L132.15 200.234C141.153 200.219 150.176 204.315 154.979 212.603Z" fill="#FCD066"/>
<path fill-rule="evenodd" clip-rule="evenodd" d="M75.0961 95.3832C109.203 95.3832 136.863 123.061 136.863 157.151C136.864 191.257 109.203 218.921 75.0961 218.921C40.9862 218.921 13.3383 191.257 13.3383 157.151C13.3383 123.061 40.9862 95.3836 75.0961 95.3832Z" fill="#4D4C4B"/>
<path fill-rule="evenodd" clip-rule="evenodd" d="M75.0961 105.892C103.404 105.892 126.359 128.851 126.359 157.151C126.359 185.454 103.404 208.411 75.0961 208.411C46.7799 208.411 23.8374 185.454 23.8374 157.151C23.8374 128.851 46.7799 105.893 75.0961 105.892Z" fill="#EEEFEE"/>
<path fill-rule="evenodd" clip-rule="evenodd" d="M75.0961 105.892C98.4577 105.892 118.174 121.533 124.35 142.907C118.174 164.274 98.4577 179.914 75.0961 179.914C51.7254 179.914 32.0291 164.274 25.8541 142.907C32.0291 121.533 51.7254 105.893 75.0961 105.892Z" fill="#FEFEFE"/>
<path fill-rule="evenodd" clip-rule="evenodd" d="M189.207 95.3832C223.321 95.3832 250.968 123.061 250.968 157.151C250.969 191.257 223.321 218.921 189.206 218.921C155.099 218.921 127.437 191.27 127.437 157.151C127.437 123.061 155.099 95.3836 189.207 95.3832Z" fill="#4D4C4B"/>
<path fill-rule="evenodd" clip-rule="evenodd" d="M189.207 105.892C217.514 105.892 240.47 128.851 240.47 157.151C240.47 185.454 217.514 208.411 189.206 208.411C160.9 208.411 137.951 185.454 137.951 157.151C137.951 128.851 160.9 105.893 189.207 105.892Z" fill="#EEEFEE"/>
<path fill-rule="evenodd" clip-rule="evenodd" d="M189.207 105.892C212.564 105.892 232.283 121.533 238.449 142.907C232.284 164.274 212.564 179.914 189.206 179.914C165.838 179.914 146.129 164.274 139.951 142.907C146.129 121.533 165.838 105.893 189.207 105.892Z" fill="#FEFEFE"/>
<path fill-rule="evenodd" clip-rule="evenodd" d="M81.5386 125.275C99.8202 125.275 114.651 140.097 114.651 158.36C114.651 176.652 99.8202 191.473 81.5386 191.473C63.2457 191.473 48.4285 176.652 48.4285 158.36C48.4285 152.267 50.0869 146.559 52.9639 141.651C55.3284 147.496 61.0461 151.598 67.749 151.598C76.5504 151.598 83.6983 144.476 83.6983 135.668C83.6983 131.704 82.2511 128.087 79.8711 125.309C80.421 125.275 80.9849 125.275 81.5386 125.275Z" fill="#4D4C4B"/>
<path fill-rule="evenodd" clip-rule="evenodd" d="M182.753 125.275C201.051 125.275 215.873 140.097 215.873 158.36C215.873 176.652 201.052 191.473 182.753 191.473C164.478 191.473 149.657 176.652 149.657 158.36C149.657 152.267 151.306 146.559 154.178 141.651C156.552 147.496 162.281 151.598 168.976 151.598C177.78 151.598 184.916 144.476 184.916 135.668C184.916 131.704 183.485 128.087 181.096 125.309C181.653 125.275 182.2 125.275 182.753 125.275Z" fill="#4D4C4B"/>
</svg>
